<?xml version="1.0" encoding="UTF-8"?>
<!--Generator: Apple Native CoreSVG 175.5-->
<!DOCTYPE svg
PUBLIC "-//W3C//DTD SVG 1.1//EN"
       "http://www.w3.org/Graphics/SVG/1.1/DTD/svg11.dtd">
<svg version="1.1" xmlns="http://www.w3.org/2000/svg" xmlns:xlink="http://www.w3.org/1999/xlink" width="20.6009" height="18.8717">
 <g>
  <rect height="18.8717" opacity="0" width="20.6009" x="0" y="0"/>
  <path d="M13.9357 17.9302C14.1429 17.9302 14.3997 17.8225 14.5634 17.6588L20.3087 12.0271C20.5035 11.8345 20.6009 11.6087 20.6009 11.3683C20.6009 11.13 20.5035 10.9042 20.3087 10.7198L14.5634 5.08819C14.3997 4.91626 14.1429 4.81888 13.9357 4.81888C13.4156 4.81888 13.0675 5.16698 13.0675 5.67456C13.0675 5.92319 13.1545 6.12216 13.3058 6.2734L16.1245 9.02184L18.5348 11.0863L18.7068 10.6307L15.6816 10.5044L3.21825 10.5044C2.19395 10.5044 1.74033 10.0529 1.74033 8.995L1.74033 3.21825C1.74033 2.19184 2.19184 1.74034 3.21825 1.74034L8.68325 1.74034C9.224 1.74034 9.57825 1.35295 9.57825 0.874285C9.57825 0.387394 9.22189 0 8.68114 0L3.21825 0C0.940503 0 0 0.940509 0 3.21825L0 8.995C0 11.2007 0.940503 12.2447 3.21825 12.2447L15.6816 12.2447L18.7068 12.1059L18.5348 11.6628L16.1245 13.7272L13.3058 16.4653C13.1545 16.6269 13.0675 16.8134 13.0675 17.0642C13.0675 17.5696 13.4156 17.9302 13.9357 17.9302Z" fill="#000000" fill-opacity="0.85"/>
 </g>
</svg>
