<?xml version="1.0" encoding="UTF-8"?>
<!--Generator: Apple Native CoreSVG 175.5-->
<!DOCTYPE svg
PUBLIC "-//W3C//DTD SVG 1.1//EN"
       "http://www.w3.org/Graphics/SVG/1.1/DTD/svg11.dtd">
<svg version="1.1" xmlns="http://www.w3.org/2000/svg" xmlns:xlink="http://www.w3.org/1999/xlink" width="18.0023" height="17.9361">
 <g>
  <rect height="17.9361" opacity="0" width="18.0023" x="0" y="0"/>
  <path d="M16.8626 1.16881C15.8583 0.176974 14.4537 0.0166728 12.7954 0.0166728L5.18576 0.0166728C3.55067 0.0166728 2.14189 0.179083 1.14179 1.17092C0.149931 2.17102 0 3.55489 0 5.19209L0 12.7293C0 14.4021 0.147821 15.7964 1.13968 16.784C2.14189 17.7862 3.5361 17.9361 5.20686 17.9361L12.7954 17.9361C14.4537 17.9361 15.8604 17.7862 16.8626 16.784C17.8523 15.7839 18.0023 14.4021 18.0023 12.7293L18.0023 5.22356C18.0023 3.55067 17.8523 2.1668 16.8626 1.16881ZM16.4316 4.95362L16.4316 12.9992C16.4316 14.0017 16.3023 15.0461 15.7124 15.636C15.1226 16.228 14.0657 16.3654 13.0653 16.3654L4.93695 16.3654C3.93657 16.3654 2.87758 16.2258 2.28769 15.636C1.69782 15.0461 1.5707 14.0017 1.5707 12.9992L1.5707 4.98509C1.5707 3.95536 1.69782 2.90461 2.28558 2.31474C2.87547 1.72274 3.94079 1.58738 4.96839 1.58738L13.0653 1.58738C14.0657 1.58738 15.1226 1.72697 15.7124 2.31685C16.3044 2.90673 16.4316 3.95114 16.4316 4.95362Z" fill="#000000" fill-opacity="0.85"/>
  <path d="M4.47038 8.96183C4.47038 9.43625 4.81233 9.76788 5.30957 9.76788L8.18262 9.76788L8.18262 12.6513C8.18262 13.1381 8.51423 13.478 8.98867 13.478C9.47765 13.478 9.81963 13.1403 9.81963 12.6513L9.81963 9.76788L12.7009 9.76788C13.1899 9.76788 13.5194 9.43625 13.5194 8.96183C13.5194 8.47283 13.192 8.13087 12.7009 8.13087L9.81963 8.13087L9.81963 5.25783C9.81963 4.75848 9.47765 4.42072 8.98867 4.42072C8.51423 4.42072 8.18262 4.76059 8.18262 5.25783L8.18262 8.13087L5.30957 8.13087C4.81022 8.13087 4.47038 8.47283 4.47038 8.96183Z" fill="#000000" fill-opacity="0.85"/>
 </g>
</svg>
