<?xml version="1.0" encoding="UTF-8"?>
<!--Generator: Apple Native CoreSVG 175.5-->
<!DOCTYPE svg
PUBLIC "-//W3C//DTD SVG 1.1//EN"
       "http://www.w3.org/Graphics/SVG/1.1/DTD/svg11.dtd">
<svg version="1.1" xmlns="http://www.w3.org/2000/svg" xmlns:xlink="http://www.w3.org/1999/xlink" width="27.5863" height="22.282">
 <g>
  <rect height="22.282" opacity="0" width="27.5863" x="0" y="0"/>
  <path d="M6.20014 20.9239C6.58985 20.9239 6.86147 20.7331 7.32767 20.3083L10.1702 17.6633C9.60891 17.2193 9.17206 16.5267 9.17206 14.9373L9.17206 8.46822C9.17206 5.46693 10.9876 3.69275 13.9807 3.69275L20.8164 3.69275L20.8061 3.32035C20.6529 1.31605 19.3348 0.0186026 17.1006 0.0186026L3.70542 0.0186026C1.4713 0.0186026 0 1.35745 0 3.6805L0 13.2686C0 15.5938 1.4713 17.0858 3.70542 17.0858L5.3337 17.0858L5.3337 19.933C5.3337 20.5341 5.64884 20.9239 6.20014 20.9239Z" fill="#000000" fill-opacity="0.85"/>
  <path d="M21.9723 22.282C22.5339 22.282 22.8512 21.8819 22.8512 21.2808L22.8512 18.4336L23.881 18.4336C26.115 18.4336 27.5863 16.9416 27.5863 14.6185L27.5863 8.68809C27.5863 6.36503 26.115 5.02618 23.881 5.02618L14.2109 5.02618C11.8754 5.02618 10.4973 6.36503 10.4973 8.6902L10.4973 14.6185C10.4973 16.9416 11.8754 18.4336 14.2109 18.4336L17.3244 18.4336L20.8551 21.6582C21.313 22.0788 21.5929 22.282 21.9723 22.282Z" fill="#000000" fill-opacity="0.85"/>
  <path d="M19.0762 12.924C18.6369 12.924 18.4026 12.6752 18.3923 12.2295L18.2803 9.03902C18.2596 8.56228 18.5995 8.23065 19.0762 8.23065C19.5322 8.23065 19.8928 8.57263 19.8721 9.04936L19.7477 12.2295C19.7374 12.6855 19.5031 12.924 19.0762 12.924ZM19.0762 15.709C18.5701 15.709 18.1264 15.3025 18.1264 14.8006C18.1264 14.2966 18.5598 13.8942 19.0762 13.8942C19.5802 13.8942 20.0136 14.2863 20.0136 14.8006C20.0136 15.3025 19.5698 15.709 19.0762 15.709Z" fill="#ffffff"/>
 </g>
</svg>
