<?xml version="1.0" encoding="UTF-8"?>
<!--Generator: Apple Native CoreSVG 175.5-->
<!DOCTYPE svg
PUBLIC "-//W3C//DTD SVG 1.1//EN"
       "http://www.w3.org/Graphics/SVG/1.1/DTD/svg11.dtd">
<svg version="1.1" xmlns="http://www.w3.org/2000/svg" xmlns:xlink="http://www.w3.org/1999/xlink" width="19.9197" height="19.9218">
 <g>
  <rect height="19.9218" opacity="0" width="19.9197" x="0" y="0"/>
  <path d="M9.95468 19.9094C15.3993 19.9094 19.9197 15.3993 19.9197 9.95469C19.9197 4.51006 15.389 0 9.94433 0C4.50794 0 0 4.51006 0 9.95469C0 15.3993 4.51831 19.9094 9.95468 19.9094ZM9.95468 18.2559C5.3575 18.2559 1.6721 14.5622 1.6721 9.95469C1.6721 5.34716 5.34716 1.6535 9.94433 1.6535C14.5519 1.6535 18.2559 5.34716 18.2559 9.95469C18.2559 14.5622 14.5622 18.2559 9.95468 18.2559ZM16.6416 16.3922L16.6105 16.2823C16.124 14.8476 13.5428 13.275 9.95468 13.275C6.37075 13.275 3.79998 14.8455 3.30919 16.276L3.27814 16.3922C5.04316 18.1306 8.05631 19.1445 9.95679 19.1445C11.8718 19.1445 14.8618 18.139 16.6416 16.3922ZM9.95468 11.6217C11.8342 11.6424 13.3065 10.0371 13.3065 7.93752C13.3065 5.96257 11.8279 4.32808 9.95468 4.32808C8.09187 4.32808 6.60077 5.96257 6.61325 7.93752C6.6236 10.0371 8.0752 11.601 9.95468 11.6217Z" fill="#4675a2"/>
 </g>
</svg>
