<?xml version="1.0" encoding="UTF-8"?>
<!--Generator: Apple Native CoreSVG 175.5-->
<!DOCTYPE svg
PUBLIC "-//W3C//DTD SVG 1.1//EN"
       "http://www.w3.org/Graphics/SVG/1.1/DTD/svg11.dtd">
<svg version="1.1" xmlns="http://www.w3.org/2000/svg" xmlns:xlink="http://www.w3.org/1999/xlink" width="18.4229" height="20.1711">
 <g>
  <rect height="20.1711" opacity="0" width="18.4229" x="0" y="0"/>
  <path d="M0 15.4526C0 16.1635 0.549193 16.6403 1.47543 16.6403L5.59446 16.6403C5.67114 18.5152 7.14243 20.1586 9.21146 20.1586C11.2701 20.1586 12.7414 18.5255 12.8284 16.6403L16.9475 16.6403C17.8737 16.6403 18.4229 16.1635 18.4229 15.4526C18.4229 14.4764 17.4285 13.594 16.5856 12.7342C15.9341 12.0595 15.7647 10.6727 15.687 9.54721C15.6176 5.69756 14.6249 3.21353 12.0301 2.27403C11.7003 1.00682 10.6561 0 9.21146 0C7.7689 0 6.72258 1.00682 6.39285 2.27403C3.79796 3.21353 2.80532 5.69756 2.72552 9.54721C2.6582 10.6727 2.48054 12.0595 1.83939 12.7342C0.986137 13.594 0 14.4764 0 15.4526ZM1.90001 15.1628L1.90001 15.0424C2.07597 14.7548 2.65611 14.1825 3.16952 13.6131C3.87124 12.8326 4.20186 11.5755 4.28586 9.66972C4.36375 5.40394 5.63124 4.05142 7.30333 3.58826C7.55084 3.52998 7.68197 3.40537 7.69041 3.16419C7.7261 2.14047 8.30352 1.43614 9.21146 1.43614C10.109 1.43614 10.6968 2.14047 10.7242 3.16419C10.7327 3.40537 10.8721 3.52998 11.1092 3.58826C12.7917 4.05142 14.0592 5.40394 14.137 9.66972C14.2231 11.5755 14.5538 12.8326 15.2534 13.6131C15.7668 14.1825 16.349 14.7548 16.5229 15.0424L16.5229 15.1628ZM7.1134 16.6403L11.3095 16.6403C11.2348 17.9514 10.3851 18.7888 9.21146 18.7888C8.02746 18.7888 7.18817 17.9514 7.1134 16.6403Z" fill="#4675a2"/>
 </g>
</svg>
