<?xml version="1.0" encoding="UTF-8"?>
<!--Generator: Apple Native CoreSVG 175.5-->
<!DOCTYPE svg
PUBLIC "-//W3C//DTD SVG 1.1//EN"
       "http://www.w3.org/Graphics/SVG/1.1/DTD/svg11.dtd">
<svg version="1.1" xmlns="http://www.w3.org/2000/svg" xmlns:xlink="http://www.w3.org/1999/xlink" width="19.9197" height="19.9218">
 <g>
  <rect height="19.9218" opacity="0" width="19.9197" x="0" y="0"/>
  <path d="M9.95468 19.9094C15.3993 19.9094 19.9197 15.3993 19.9197 9.95469C19.9197 4.51006 15.389 0 9.94433 0C4.50794 0 0 4.51006 0 9.95469C0 15.3993 4.51831 19.9094 9.95468 19.9094Z" fill="#4675a2"/>
  <path d="M7.80739 14.5748C7.28734 14.5748 7.00957 14.1956 7.00957 13.6549L7.00957 6.18857C7.00957 5.64571 7.28311 5.26655 7.80317 5.26655L10.6046 5.26655C12.5636 5.26655 13.8775 6.52048 13.8775 8.36563C13.8775 10.2335 12.576 11.4647 10.5942 11.4647L8.6259 11.4647L8.6259 13.6549C8.6259 14.2163 8.33989 14.5748 7.80739 14.5748ZM8.6259 10.2335L10.3707 10.2335C11.5524 10.2335 12.284 9.52256 12.284 8.36563C12.284 7.21901 11.5545 6.50603 10.3707 6.50603L8.6259 6.50603Z" fill="#ffffff"/>
 </g>
</svg>
