<?xml version="1.0" encoding="UTF-8"?>
<!--Generator: Apple Native CoreSVG 175.5-->
<!DOCTYPE svg
PUBLIC "-//W3C//DTD SVG 1.1//EN"
       "http://www.w3.org/Graphics/SVG/1.1/DTD/svg11.dtd">
<svg version="1.1" xmlns="http://www.w3.org/2000/svg" xmlns:xlink="http://www.w3.org/1999/xlink" width="18.4229" height="20.5437">
 <g>
  <rect height="20.5437" opacity="0" width="18.4229" x="0" y="0"/>
  <path d="M1.47543 16.6424L16.9475 16.6424C17.8737 16.6424 18.4229 16.1635 18.4229 15.4526C18.4229 14.4764 17.4285 13.594 16.5856 12.7342C15.9341 12.0595 15.7647 10.6748 15.687 9.54721C15.6176 5.80108 14.6249 3.21564 12.0301 2.27403C11.6589 1.00682 10.6561-3.55271e-15 9.21146-3.55271e-15C7.7689-3.55271e-15 6.76398 1.00682 6.39285 2.27403C3.79796 3.21564 2.80532 5.80108 2.72552 9.54721C2.6582 10.6748 2.48054 12.0595 1.83939 12.7342C0.986137 13.594 0 14.4764 0 15.4526C0 16.1635 0.549193 16.6424 1.47543 16.6424ZM9.21146 20.5416C10.8722 20.5416 12.0697 19.3398 12.2051 17.9655L6.2178 17.9655C6.34283 19.3398 7.55284 20.5416 9.21146 20.5416Z" fill="#4675a2"/>
 </g>
</svg>
