<?xml version="1.0" encoding="UTF-8"?>
<!--Generator: Apple Native CoreSVG 175.5-->
<!DOCTYPE svg
PUBLIC "-//W3C//DTD SVG 1.1//EN"
       "http://www.w3.org/Graphics/SVG/1.1/DTD/svg11.dtd">
<svg version="1.1" xmlns="http://www.w3.org/2000/svg" xmlns:xlink="http://www.w3.org/1999/xlink" width="19.9197" height="19.9218">
 <g>
  <rect height="19.9218" opacity="0" width="19.9197" x="0" y="0"/>
  <path d="M9.95468 19.9094C15.3993 19.9094 19.9197 15.3993 19.9197 9.95469C19.9197 4.51006 15.389 0 9.94433 0C4.50794 0 0 4.51006 0 9.95469C0 15.3993 4.51831 19.9094 9.95468 19.9094Z" fill="#4675a2"/>
  <path d="M9.95468 18.4361C7.71202 18.4361 5.4564 17.5066 3.95304 15.918C5.00609 14.2581 7.30412 13.2793 9.95468 13.2793C12.5763 13.2793 14.8929 14.2478 15.9563 15.918C14.453 17.5066 12.1973 18.4361 9.95468 18.4361ZM9.95468 11.626C8.0752 11.6053 6.60288 10.0413 6.60288 7.94174C6.59043 5.96679 8.08153 4.3323 9.95468 4.3323C11.8279 4.3323 13.3065 5.96679 13.3065 7.94174C13.3065 10.0413 11.8342 11.6467 9.95468 11.626Z" fill="#ffffff"/>
 </g>
</svg>
