<?xml version="1.0" encoding="UTF-8"?>
<!--Generator: Apple Native CoreSVG 175.5-->
<!DOCTYPE svg
PUBLIC "-//W3C//DTD SVG 1.1//EN"
       "http://www.w3.org/Graphics/SVG/1.1/DTD/svg11.dtd">
<svg version="1.1" xmlns="http://www.w3.org/2000/svg" xmlns:xlink="http://www.w3.org/1999/xlink" width="18.1307" height="14.8137">
 <g>
  <rect height="14.8137" opacity="0" width="18.1307" x="0" y="0"/>
  <path d="M0 7.4006C0 7.64097 0.107728 7.86467 0.30248 8.04908L6.78508 14.5319C6.97983 14.7142 7.19318 14.8012 7.42321 14.8012C7.90185 14.8012 8.27066 14.4427 8.27066 13.958C8.27066 13.7279 8.19399 13.4979 8.0324 13.3467L5.85487 11.1195L1.97649 7.59514L1.77752 8.0761L4.92751 8.277L17.2646 8.277C17.7722 8.277 18.1307 7.90818 18.1307 7.4006C18.1307 6.89302 17.7722 6.5242 17.2646 6.5242L4.92751 6.5242L1.77752 6.7251L1.97649 7.2164L5.85487 3.68169L8.0324 1.45453C8.1961 1.30118 8.27066 1.07326 8.27066 0.843232C8.27066 0.358451 7.90185 0 7.42321 0C7.19318 0 6.97561 0.087018 6.76609 0.288311L0.30248 6.75212C0.107728 6.93653 0 7.16022 0 7.4006Z" fill="#4675a2"/>
 </g>
</svg>
