<?xml version="1.0" encoding="UTF-8"?>
<!--Generator: Apple Native CoreSVG 175.5-->
<!DOCTYPE svg
PUBLIC "-//W3C//DTD SVG 1.1//EN"
       "http://www.w3.org/Graphics/SVG/1.1/DTD/svg11.dtd">
<svg version="1.1" xmlns="http://www.w3.org/2000/svg" xmlns:xlink="http://www.w3.org/1999/xlink" width="23.3027" height="22.162">
 <g>
  <rect height="22.162" opacity="0" width="23.3027" x="0" y="0"/>
  <path d="M8.83772 19.5044L14.4649 19.5044L14.4649 12.3962C14.4649 11.9501 14.1702 11.6555 13.7241 11.6555L9.57845 11.6555C9.13236 11.6555 8.83772 11.9501 8.83772 12.3962ZM5.02045 20.5071L18.2285 20.5071C19.617 20.5071 20.4261 19.7144 20.4261 18.3508L20.4261 7.55586L18.8575 6.49467L18.8575 17.951C18.8575 18.5915 18.5126 18.9364 17.8928 18.9364L5.34576 18.9364C4.72803 18.9364 4.39351 18.5915 4.39351 17.951L4.39351 6.49889L2.81246 7.55586L2.81246 18.3508C2.81246 19.7165 3.62161 20.5071 5.02045 20.5071ZM0 9.64136C0 10.0433 0.317044 10.4225 0.847446 10.4225C1.11888 10.4225 1.34258 10.2733 1.53944 10.1096L11.3124 1.9004C11.5369 1.71329 11.7925 1.71521 12.0089 1.9004L21.7735 10.1096C21.9807 10.2733 22.2044 10.4225 22.4758 10.4225C22.9358 10.4225 23.3027 10.1365 23.3027 9.67241C23.3027 9.37605 23.2135 9.17919 22.9999 9.00092L12.8422 0.46066C12.114-0.153553 11.222-0.153553 10.4895 0.46066L0.313029 9.00092C0.0994931 9.17919 0 9.41748 0 9.64136ZM17.9749 5.23942L20.4261 7.31529L20.4261 2.79637C20.4261 2.36929 20.1441 2.09766 19.7274 2.09766L18.684 2.09766C18.2569 2.09766 17.9749 2.36929 17.9749 2.79637Z" fill="#000000" fill-opacity="0.85"/>
 </g>
</svg>
