<?xml version="1.0" encoding="UTF-8"?>
<!--Generator: Apple Native CoreSVG 175.5-->
<!DOCTYPE svg
PUBLIC "-//W3C//DTD SVG 1.1//EN"
       "http://www.w3.org/Graphics/SVG/1.1/DTD/svg11.dtd">
<svg version="1.1" xmlns="http://www.w3.org/2000/svg" xmlns:xlink="http://www.w3.org/1999/xlink" width="19.9197" height="19.9218">
 <g>
  <rect height="19.9218" opacity="0" width="19.9197" x="0" y="0"/>
  <path d="M9.95468 19.9094C15.3993 19.9094 19.9197 15.3993 19.9197 9.95469C19.9197 4.51006 15.389 0 9.94433 0C4.50794 0 0 4.51006 0 9.95469C0 15.3993 4.51831 19.9094 9.95468 19.9094ZM9.95468 18.2559C5.3575 18.2559 1.6721 14.5622 1.6721 9.95469C1.6721 5.34716 5.34716 1.6535 9.94433 1.6535C14.5519 1.6535 18.2559 5.34716 18.2559 9.95469C18.2559 14.5622 14.5622 18.2559 9.95468 18.2559Z" fill="#000000" fill-opacity="0.85"/>
  <path d="M7.84879 14.4216C8.36059 14.4216 8.64659 14.0921 8.64659 13.5514L8.64659 11.4129L10.5632 11.4129C12.4725 11.4129 13.745 10.2232 13.745 8.41737C13.745 6.63223 12.46 5.41146 10.5735 5.41146L7.84457 5.41146C7.34522 5.41146 7.08203 5.76991 7.08203 6.29208L7.08203 13.5514C7.08203 14.0714 7.34945 14.4216 7.84879 14.4216ZM8.64659 10.2231L8.64659 6.60954L10.35 6.60954C11.4945 6.60954 12.2115 7.2997 12.2115 8.41737C12.2115 9.53293 11.5006 10.2231 10.35 10.2231Z" fill="#000000" fill-opacity="0.85"/>
 </g>
</svg>
