<?xml version="1.0" encoding="UTF-8"?>
<!--Generator: Apple Native CoreSVG 175.5-->
<!DOCTYPE svg
PUBLIC "-//W3C//DTD SVG 1.1//EN"
       "http://www.w3.org/Graphics/SVG/1.1/DTD/svg11.dtd">
<svg version="1.1" xmlns="http://www.w3.org/2000/svg" xmlns:xlink="http://www.w3.org/1999/xlink" width="23.105" height="18.147">
 <g>
  <rect height="18.147" opacity="0" width="23.105" x="0" y="0"/>
  <path d="M4.02921 5.57596C4.25794 4.50313 4.73547 3.10619 5.05734 2.54968C5.31712 2.08629 5.6022 1.88422 6.13481 1.81558C6.86808 1.71589 8.53402 1.64745 11.5535 1.64745C14.5709 1.64745 16.2368 1.69521 16.9722 1.81558C17.4924 1.89457 17.7692 2.08629 18.0497 2.54968C18.3819 3.09584 18.8159 4.50313 19.0778 5.57596C19.1691 5.93483 19.0115 6.07632 18.6315 6.05139C17.0091 5.94748 15.0802 5.84379 11.5535 5.84379C8.02685 5.84379 6.08758 5.94748 4.47549 6.05139C4.09555 6.07632 3.94832 5.93483 4.02921 5.57596ZM4.51308 12.7842C3.61861 12.7842 2.94421 12.1077 2.94421 11.2132C2.94421 10.3209 3.61861 9.64436 4.51308 9.64436C5.40544 9.64436 6.08196 10.3209 6.08196 11.2132C6.08196 12.1077 5.40544 12.7842 4.51308 12.7842ZM8.96856 12.403C8.30452 12.403 7.84387 11.9341 7.84387 11.2679C7.84387 10.6017 8.30452 10.1411 8.96856 10.1411L14.1363 10.1411C14.8025 10.1411 15.2632 10.6017 15.2632 11.2679C15.2632 11.9341 14.8025 12.403 14.1363 12.403ZM18.5939 12.7842C17.6995 12.7842 17.0251 12.1077 17.0251 11.2132C17.0251 10.3209 17.6995 9.64436 18.5939 9.64436C19.4863 9.64436 20.1628 10.3209 20.1628 11.2132C20.1628 12.1077 19.4863 12.7842 18.5939 12.7842ZM11.5535 15.4158C14.8363 15.4158 19.1934 15.2538 21.0458 15.042C22.3638 14.8967 23.105 14.1684 23.105 12.9166L23.105 11.197C23.105 9.54961 22.7702 8.63002 21.8653 7.45737L21.0448 6.38553C20.6856 4.62855 20.0376 2.78221 19.7012 2.06159C19.1799 0.967133 18.1644 0.305189 16.8714 0.137068C16.2089 0.0498406 14.0777 0 11.5535 0C9.02936 0 6.88567 0.0601846 6.2335 0.137068C4.94257 0.294845 3.92711 0.967133 3.40585 2.06159C3.06942 2.78221 2.42144 4.62855 2.06219 6.38553L1.24168 7.45737C0.334729 8.63002 0 9.54961 0 11.197L0 12.9166C0 14.1684 0.74323 14.8967 2.05907 15.042C3.91153 15.2538 8.26865 15.4158 11.5535 15.4158ZM1.28941 18.1025L2.44385 18.1025C3.17674 18.1025 3.7415 17.5481 3.7415 16.8256L3.7415 14.3942L0 12.6127L0 16.8256C0 17.5481 0.564761 18.1025 1.28941 18.1025ZM20.6632 18.1025L21.8073 18.1025C22.5422 18.1025 23.105 17.5481 23.105 16.8256L23.105 12.6127L19.3634 14.3942L19.3634 16.8256C19.3634 17.5481 19.9282 18.1025 20.6632 18.1025Z" fill="#4675a2"/>
 </g>
</svg>
