<?xml version="1.0" encoding="UTF-8"?>
<!--Generator: Apple Native CoreSVG 175.5-->
<!DOCTYPE svg
PUBLIC "-//W3C//DTD SVG 1.1//EN"
       "http://www.w3.org/Graphics/SVG/1.1/DTD/svg11.dtd">
<svg version="1.1" xmlns="http://www.w3.org/2000/svg" xmlns:xlink="http://www.w3.org/1999/xlink" width="22.6616" height="20.9372">
 <g>
  <rect height="20.9372" opacity="0" width="22.6616" x="0" y="0"/>
  <path d="M3.02219 20.9332L13.3924 20.9332C15.4099 20.9332 16.4249 19.916 16.4249 17.8696L16.4249 13.3404L14.846 13.3404L14.846 17.8447C14.846 18.8199 14.322 19.3625 13.3157 19.3625L3.10921 19.3625C2.09255 19.3625 1.5707 18.8199 1.5707 17.8447L1.5707 3.0885C1.5707 2.11324 2.09255 1.57068 3.10921 1.57068L13.3157 1.57068C14.322 1.57068 14.846 2.11324 14.846 3.0885L14.846 7.5885L16.4249 7.5885L16.4249 3.06359C16.4249 1.02753 15.4099 0 13.3924 0L3.02219 0C1.00683 0 0 1.02753 0 3.06359L0 17.8696C0 19.916 1.00683 20.9332 3.02219 20.9332Z" fill="#4675a2"/>
  <path d="M9.02958 11.2374L19.0591 11.2374L20.5166 11.1731L19.8272 11.8377L18.2557 13.3181C18.092 13.4508 18.0236 13.6497 18.0236 13.8466C18.0236 14.2465 18.3096 14.5553 18.7033 14.5553C18.9105 14.5553 19.0721 14.4683 19.2151 14.3252L22.4006 11.028C22.5953 10.8333 22.6616 10.6592 22.6616 10.4624C22.6616 10.2655 22.5953 10.0914 22.4006 9.89668L19.2151 6.59737C19.0721 6.44402 18.9105 6.36734 18.7033 6.36734C18.3096 6.36734 18.0236 6.66368 18.0236 7.06566C18.0236 7.26252 18.092 7.47184 18.2557 7.6045L19.8272 9.08494L20.5291 9.75159L19.0591 9.68737L9.02958 9.68737C8.62549 9.68737 8.27528 10.0479 8.27528 10.4624C8.27528 10.8768 8.62549 11.2374 9.02958 11.2374Z" fill="#4675a2"/>
 </g>
</svg>
