<?xml version="1.0" encoding="UTF-8"?>
<!--Generator: Apple Native CoreSVG 175.5-->
<!DOCTYPE svg
PUBLIC "-//W3C//DTD SVG 1.1//EN"
       "http://www.w3.org/Graphics/SVG/1.1/DTD/svg11.dtd">
<svg version="1.1" xmlns="http://www.w3.org/2000/svg" xmlns:xlink="http://www.w3.org/1999/xlink" width="16.1071" height="16.1299">
 <g>
  <rect height="16.1299" opacity="0" width="16.1071" x="0" y="0"/>
  <path d="M0 8.05872C0 8.53524 0.399868 8.93723 0.878504 8.93723L7.1802 8.93723L7.1802 15.2389C7.1802 15.7072 7.58219 16.1174 8.05871 16.1174C8.53526 16.1174 8.92687 15.7072 8.92687 15.2389L8.92687 8.93723L15.2389 8.93723C15.7072 8.93723 16.1071 8.53524 16.1071 8.05872C16.1071 7.58219 15.7072 7.18021 15.2389 7.18021L8.92687 7.18021L8.92687 0.878509C8.92687 0.410217 8.53526-1.77636e-15 8.05871-1.77636e-15C7.58219-1.77636e-15 7.1802 0.410217 7.1802 0.878509L7.1802 7.18021L0.878504 7.18021C0.399868 7.18021 0 7.58219 0 8.05872Z" fill="#4675a2"/>
 </g>
</svg>
