<?xml version="1.0" encoding="UTF-8"?>
<!--Generator: Apple Native CoreSVG 175.5-->
<!DOCTYPE svg
PUBLIC "-//W3C//DTD SVG 1.1//EN"
       "http://www.w3.org/Graphics/SVG/1.1/DTD/svg11.dtd">
<svg version="1.1" xmlns="http://www.w3.org/2000/svg" xmlns:xlink="http://www.w3.org/1999/xlink" width="28.0396" height="22.3547">
 <g>
  <rect height="22.3547" opacity="0" width="28.0396" x="0" y="0"/>
  <path d="M6.59295 21.2639C7.10688 21.2639 7.46132 21.0918 8.08276 20.5449L12.1831 16.8712L11.0487 15.7864L6.99282 19.5357L6.99282 16.7375C6.99282 16.1822 6.65506 15.9251 6.2343 15.9251L4.32115 15.9251C2.59651 15.9251 1.5707 14.9861 1.5707 13.1622L1.5707 4.27763C1.5707 2.45372 2.59862 1.49401 4.32115 1.49401L18.0972 1.49401C19.8301 1.49401 20.858 2.45372 20.858 4.27763L20.858 5.63556L22.4287 5.63556L22.4287 4.21512C22.4287 1.56466 20.8537 0.0310619 18.2011 0.0310619L4.22759 0.0310619C1.6764 0.0310619 0 1.56466 0 4.21512L0 13.204C0 15.8669 1.6764 17.3984 4.22759 17.3984L5.51528 17.3984L5.51528 20.0639C5.51528 20.8203 5.89463 21.2639 6.59295 21.2639Z" fill="#4675a2"/>
  <path d="M22.4982 22.3547C23.1695 22.3547 23.5508 21.8782 23.5508 21.1406L23.5508 18.7979L23.9552 18.7979C26.4055 18.7979 28.0396 17.319 28.0396 14.757L28.0396 8.99067C28.0396 6.439 26.4055 4.95795 23.9552 4.95795L14.4804 4.95795C11.9265 4.95795 10.4041 6.439 10.4041 8.99067L10.4041 14.7612C10.4041 17.3232 11.9265 18.7979 14.4804 18.7979L17.8465 18.7979L21.106 21.5842C21.7025 22.0958 22.0238 22.3547 22.4982 22.3547ZM22.0817 20.5912L18.9493 17.7849C18.5636 17.4448 18.3169 17.3246 17.7863 17.3246L14.5697 17.3246C12.9481 17.3246 11.9706 16.4466 11.9706 14.7111L11.9727 9.04898C11.9727 7.32806 12.9481 6.42092 14.5697 6.42092L23.8637 6.42092C25.4977 6.42092 26.4628 7.32806 26.4628 9.04898L26.4628 14.7173C26.4628 16.4424 25.4957 17.3246 23.8637 17.3246L22.842 17.3246C22.4174 17.3246 22.0817 17.5754 22.0817 18.1265ZM19.227 13.0446C19.6685 13.0446 19.9152 12.7916 19.9359 12.3024L20.0707 8.89521C20.0914 8.38531 19.708 8.03088 19.2167 8.03088C18.7171 8.03088 18.3545 8.37497 18.3752 8.88487L18.4975 12.3024C18.5182 12.7812 18.767 13.0446 19.227 13.0446ZM19.2167 16.0104C19.7498 16.0104 20.2164 15.5893 20.2164 15.0418C20.2164 14.5025 19.7602 14.0835 19.2167 14.0835C18.6754 14.0835 18.2191 14.5129 18.2191 15.0418C18.2191 15.5789 18.6754 16.0104 19.2167 16.0104Z" fill="#4675a2"/>
 </g>
</svg>
