<?xml version="1.0" encoding="UTF-8"?>
<!--Generator: Apple Native CoreSVG 175.5-->
<!DOCTYPE svg
PUBLIC "-//W3C//DTD SVG 1.1//EN"
       "http://www.w3.org/Graphics/SVG/1.1/DTD/svg11.dtd">
<svg version="1.1" xmlns="http://www.w3.org/2000/svg" xmlns:xlink="http://www.w3.org/1999/xlink" width="19.3125" height="20.6333">
 <g>
  <rect height="20.6333" opacity="0" width="19.3125" x="0" y="0"/>
  <path d="M3.0636 19.2847L14.5309 19.2847C16.2792 19.2847 17.3068 18.2737 17.3068 16.2625L17.3068 5.82047L15.7257 7.39117L15.7257 16.1755C15.7257 17.1922 15.1747 17.714 14.506 17.714L3.08852 17.714C2.11324 17.714 1.58105 17.1922 1.58105 16.1755L1.58105 5.09754C1.58105 4.08088 2.11324 3.55903 3.08852 3.55903L11.9888 3.55903L13.5595 1.98834L3.0636 1.98834C1.0379 1.98834 0 2.99516 0 5.01052L0 16.2625C0 18.2779 1.0379 19.2847 3.0636 19.2847Z" fill="#000000" fill-opacity="0.85"/>
  <path d="M6.62792 12.9574L8.52802 12.1294L17.641 3.0186L16.2993 1.70585L7.19881 10.8085L6.32523 12.6444C6.24433 12.8144 6.43718 13.0362 6.62792 12.9574ZM18.3631 2.29856L19.0665 1.58276C19.3924 1.23827 19.3945 0.763445 19.0728 0.441783L18.843 0.211941C18.5359-0.0951576 18.0547-0.0598805 17.7455 0.261802L17.0297 0.965127Z" fill="#000000" fill-opacity="0.85"/>
 </g>
</svg>
