<?xml version="1.0" encoding="UTF-8"?>
<!--Generator: Apple Native CoreSVG 175.5-->
<!DOCTYPE svg
PUBLIC "-//W3C//DTD SVG 1.1//EN"
       "http://www.w3.org/Graphics/SVG/1.1/DTD/svg11.dtd">
<svg version="1.1" xmlns="http://www.w3.org/2000/svg" xmlns:xlink="http://www.w3.org/1999/xlink" width="23.105" height="18.147">
 <g>
  <rect height="18.147" opacity="0" width="23.105" x="0" y="0"/>
  <path d="M4.58604 6.14315C4.50514 6.4813 4.65026 6.6228 5.01986 6.59787C6.58231 6.49397 8.42842 6.40062 11.5535 6.40062C14.6682 6.40062 16.5247 6.49397 18.085 6.59787C18.4547 6.6228 18.6019 6.4813 18.521 6.14315C18.2798 5.10136 17.8354 3.75618 17.5239 3.22036C17.2745 2.77558 16.9873 2.58596 16.4878 2.51734C15.7732 2.41763 14.1693 2.34921 11.5535 2.34921C8.92525 2.34921 7.33176 2.41763 6.61917 2.51734C6.11762 2.58596 5.83043 2.77558 5.57277 3.22036C5.26335 3.75618 4.81687 5.10136 4.58604 6.14315ZM4.51308 12.7842C5.40544 12.7842 6.08196 12.1077 6.08196 11.2132C6.08196 10.3209 5.40544 9.64436 4.51308 9.64436C3.61861 9.64436 2.94421 10.3209 2.94421 11.2132C2.94421 12.1077 3.61861 12.7842 4.51308 12.7842ZM8.96856 12.403L14.1363 12.403C14.8025 12.403 15.2632 11.9341 15.2632 11.2679C15.2632 10.6017 14.8025 10.1411 14.1363 10.1411L8.96856 10.1411C8.30452 10.1411 7.84387 10.6017 7.84387 11.2679C7.84387 11.9341 8.30452 12.403 8.96856 12.403ZM18.5939 12.7842C19.4863 12.7842 20.1628 12.1077 20.1628 11.2132C20.1628 10.3209 19.4863 9.64436 18.5939 9.64436C17.6995 9.64436 17.0251 10.3209 17.0251 11.2132C17.0251 12.1077 17.6995 12.7842 18.5939 12.7842ZM11.5535 15.4158C14.8363 15.4158 19.1934 15.2538 21.0458 15.042C22.3638 14.8967 23.105 14.1684 23.105 12.9166L23.105 11.197C23.105 9.54961 22.7702 8.63002 21.8653 7.45737L21.0448 6.38553C20.6856 4.62855 20.0376 2.78221 19.7012 2.06159C19.1799 0.967133 18.1644 0.305189 16.8714 0.137068C16.2089 0.0498406 14.0777 0 11.5535 0C9.02936 0 6.88567 0.0601846 6.2335 0.137068C4.94257 0.294845 3.92711 0.967133 3.40585 2.06159C3.06942 2.78221 2.42144 4.62855 2.06219 6.38553L1.24168 7.45737C0.334729 8.63002 0 9.54961 0 11.197L0 12.9166C0 14.1684 0.74323 14.8967 2.05907 15.042C3.91153 15.2538 8.26865 15.4158 11.5535 15.4158ZM11.5535 14.1432C8.22936 14.1432 3.96963 13.9936 2.41121 13.8004C1.57189 13.6882 1.28088 13.2669 1.28088 12.5232L1.28088 11.197C1.28088 9.8531 1.49694 9.23175 2.249 8.2408L3.25392 6.93682C3.50968 5.52141 4.14729 3.53842 4.56443 2.64394C4.88038 1.97065 5.4996 1.54467 6.38894 1.44075C7.01813 1.366 8.98525 1.27263 11.5535 1.27263C14.1197 1.27263 16.1282 1.366 16.6952 1.44075C17.6178 1.55502 18.2163 1.98099 18.5405 2.64394C18.9597 3.53842 19.587 5.52141 19.851 6.93682L20.8477 8.2408C21.608 9.23175 21.824 9.8531 21.824 11.197L21.824 12.5232C21.824 13.2669 21.5227 13.7007 20.6958 13.8004C19.1353 13.9894 14.8652 14.1432 11.5535 14.1432ZM1.78784 18.1025L2.94228 18.1025C3.67517 18.1025 4.23994 17.5481 4.23994 16.8256L4.23994 14.5014L0.498452 13.9618L0.498452 16.8256C0.498452 17.546 1.06319 18.1025 1.78784 18.1025ZM20.1647 18.1025L21.3088 18.1025C22.0438 18.1025 22.6065 17.5481 22.6065 16.8256L22.6065 13.9618L18.865 14.5014L18.865 16.8256C18.865 17.5481 19.4297 18.1025 20.1647 18.1025Z" fill="#000000" fill-opacity="0.85"/>
 </g>
</svg>
